<svg width="1257" height="787" viewBox="0 0 1257 787" fill="none" xmlns="http://www.w3.org/2000/svg">
<path d="M520.5 25V208.2C520.5 241.4 507.3 273.1 483.9 296.6L297.1 483.4C273.7 506.8 241.9 520 208.7 520H25.5C11.7 520 0.5 508.8 0.5 495V285C0.5 271.2 11.7 260 25.5 260H235.5C249.3 260 260.5 248.8 260.5 235V25C260.5 11.2 271.7 0 285.5 0H495.5C509.3 0 520.5 11.2 520.5 25Z" fill="#207CF1"/>
<path d="M520.5 675V755C520.5 768.8 509.3 780 495.5 780H285.5C271.7 780 260.5 768.8 260.5 755V611.8C260.5 578.6 273.7 546.9 297.1 523.4L520.5 300" stroke="#F8931F" stroke-width="12.5" stroke-miterlimit="10"/>
<path d="M430.5 390L520.5 480" stroke="#F8931F" stroke-width="12.5" stroke-miterlimit="10"/>
<path d="M774.198 283.4H749.198C745.698 283.4 742.898 286.2 742.898 289.7V302.2C742.898 305.7 745.698 308.5 749.198 308.5H774.198C777.698 308.5 780.498 305.7 780.498 302.2V289.7C780.498 286.2 777.698 283.4 774.198 283.4Z" fill="#F8931F"/>
<path d="M761.798 295.9V272.9C761.798 266 756.198 260.4 749.298 260.4H614.398" stroke="#F8931F" stroke-width="12.5" stroke-miterlimit="10"/>
<path d="M520.5 625C534.3 625 545.5 636.2 545.5 650C545.5 663.8 534.3 675 520.5 675C506.7 675 495.5 663.8 495.5 650C495.5 636.2 506.7 625 520.5 625ZM520.5 612.5C499.8 612.5 483 629.3 483 650C483 670.7 499.8 687.5 520.5 687.5C541.2 687.5 558 670.7 558 650C558 629.3 541.2 612.5 520.5 612.5Z" fill="#F8931F"/>
<path d="M774.198 497H749.198C745.698 497 742.898 494.2 742.898 490.7V478.2C742.898 474.7 745.698 471.9 749.198 471.9H774.198C777.698 471.9 780.498 474.7 780.498 478.2V490.7C780.498 494.2 777.698 497 774.198 497Z" fill="#F8931F"/>
<path d="M761.801 484.5V507.5C761.801 514.4 756.201 520 749.301 520H614.301" stroke="#F8931F" stroke-width="12.5" stroke-miterlimit="10"/>
<path d="M639.398 260H614.398C542.598 260 484.398 318.2 484.398 390C484.398 461.8 542.598 520 614.398 520H639.398" stroke="#207CF1" stroke-width="31.25" stroke-miterlimit="10" stroke-linecap="round" stroke-linejoin="round"/>
<g clip-path="url(#clip0_113_528)">
<path d="M590.059 442.317C582.411 442.317 576.554 440.146 572.489 435.805C568.52 431.464 566.535 425.339 566.535 417.429V363.023C566.535 355.113 568.52 348.988 572.489 344.647C576.554 340.306 582.411 338.136 590.059 338.136C597.706 338.136 603.514 340.306 607.483 344.647C611.549 348.988 613.582 355.113 613.582 363.023V373.731H598.481V362.011C598.481 355.74 595.818 352.605 590.494 352.605C585.17 352.605 582.508 355.74 582.508 362.011V418.587C582.508 424.76 585.17 427.847 590.494 427.847C595.818 427.847 598.481 424.76 598.481 418.587V403.104H613.582V417.429C613.582 425.339 611.549 431.464 607.483 435.805C603.514 440.146 597.706 442.317 590.059 442.317Z" fill="#207CF1"/>
<path d="M653.77 442.317C645.929 442.317 639.927 440.098 635.765 435.661C631.602 431.223 629.521 424.953 629.521 416.85V363.602C629.521 355.499 631.602 349.229 635.765 344.792C639.927 340.354 645.929 338.136 653.77 338.136C661.611 338.136 667.613 340.354 671.776 344.792C675.938 349.229 678.02 355.499 678.02 363.602V416.85C678.02 424.953 675.938 431.223 671.776 435.661C667.613 440.098 661.611 442.317 653.77 442.317ZM653.77 427.847C659.288 427.847 662.047 424.519 662.047 417.863V362.589C662.047 355.933 659.288 352.605 653.77 352.605C648.252 352.605 645.493 355.933 645.493 362.589V417.863C645.493 424.519 648.252 427.847 653.77 427.847Z" fill="#207CF1"/>
<path d="M696.082 339.583H719.751C727.979 339.583 733.981 341.512 737.756 345.371C741.532 349.133 743.419 354.969 743.419 362.879V369.101C743.419 379.615 739.934 386.271 732.965 389.069V389.358C736.837 390.516 739.547 392.879 741.096 396.448C742.742 400.017 743.565 404.792 743.565 410.773V428.571C743.565 431.464 743.661 433.828 743.855 435.661C744.049 437.397 744.533 439.133 745.307 440.87H729.044C728.463 439.23 728.076 437.686 727.882 436.239C727.689 434.792 727.592 432.188 727.592 428.426V409.905C727.592 405.275 726.817 402.043 725.269 400.21C723.817 398.377 721.251 397.461 717.573 397.461H712.055V440.87H696.082V339.583ZM717.863 382.991C721.058 382.991 723.429 382.171 724.978 380.532C726.624 378.892 727.447 376.142 727.447 372.284V364.47C727.447 360.805 726.769 358.152 725.414 356.512C724.155 354.872 722.122 354.052 719.315 354.052H712.055V382.991H717.863Z" fill="#207CF1"/>
<path d="M761.907 339.583H781.946L797.483 400.21H797.773V339.583H812.003V440.87H795.595L776.428 366.93H776.137V440.87H761.907V339.583Z" fill="#207CF1"/>
<path d="M831.136 339.583H874.698V354.052H847.108V380.821H869.034V395.291H847.108V426.4H874.698V440.87H831.136V339.583Z" fill="#207CF1"/>
<path d="M891.147 339.583H914.815C923.044 339.583 929.046 341.512 932.821 345.371C936.596 349.133 938.484 354.969 938.484 362.879V369.101C938.484 379.615 934.999 386.271 928.029 389.069V389.358C931.901 390.516 934.612 392.879 936.161 396.448C937.806 400.017 938.629 404.792 938.629 410.773V428.571C938.629 431.464 938.726 433.828 938.92 435.661C939.113 437.397 939.597 439.133 940.372 440.87H924.109C923.528 439.23 923.141 437.686 922.947 436.239C922.753 434.792 922.656 432.188 922.656 428.426V409.905C922.656 405.275 921.882 402.043 920.333 400.21C918.881 398.377 916.316 397.461 912.637 397.461H907.119V440.87H891.147V339.583ZM912.928 382.991C916.122 382.991 918.494 382.171 920.043 380.532C921.688 378.892 922.511 376.142 922.511 372.284V364.47C922.511 360.805 921.834 358.152 920.478 356.512C919.22 354.872 917.187 354.052 914.38 354.052H907.119V382.991H912.928Z" fill="#207CF1"/>
<path d="M977.736 442.317C969.992 442.317 964.135 440.146 960.166 435.805C956.197 431.368 954.213 425.05 954.213 416.85V411.062H969.314V418.008C969.314 424.567 972.073 427.847 977.591 427.847C980.302 427.847 982.335 427.075 983.69 425.532C985.142 423.892 985.868 421.288 985.868 417.718C985.868 413.474 984.9 409.76 982.964 406.577C981.028 403.297 977.446 399.39 972.218 394.856C965.636 389.069 961.038 383.86 958.424 379.229C955.81 374.503 954.503 369.197 954.503 363.313C954.503 355.306 956.536 349.133 960.602 344.792C964.668 340.354 970.573 338.136 978.317 338.136C985.965 338.136 991.725 340.354 995.597 344.792C999.566 349.133 1001.55 355.403 1001.55 363.602V367.798H986.449V362.589C986.449 359.117 985.771 356.609 984.416 355.065C983.061 353.425 981.076 352.605 978.462 352.605C973.138 352.605 970.476 355.837 970.476 362.3C970.476 365.966 971.444 369.39 973.38 372.573C975.413 375.757 979.043 379.615 984.271 384.149C990.95 389.937 995.548 395.194 998.065 399.921C1000.58 404.648 1001.84 410.194 1001.84 416.561C1001.84 424.857 999.759 431.223 995.597 435.661C991.531 440.098 985.577 442.317 977.736 442.317Z" fill="#207CF1"/>
<path d="M1030.75 354.052H1014.05V339.583H1063.42V354.052H1046.72V440.87H1030.75V354.052Z" fill="#207CF1"/>
<path d="M1100.93 442.317C1093.09 442.317 1087.09 440.098 1082.93 435.661C1078.76 431.223 1076.68 424.953 1076.68 416.85V363.602C1076.68 355.499 1078.76 349.229 1082.93 344.792C1087.09 340.354 1093.09 338.136 1100.93 338.136C1108.77 338.136 1114.78 340.354 1118.94 344.792C1123.1 349.229 1125.18 355.499 1125.18 363.602V416.85C1125.18 424.953 1123.1 431.223 1118.94 435.661C1114.78 440.098 1108.77 442.317 1100.93 442.317ZM1100.93 427.847C1106.45 427.847 1109.21 424.519 1109.21 417.863V362.589C1109.21 355.933 1106.45 352.605 1100.93 352.605C1095.41 352.605 1092.66 355.933 1092.66 362.589V417.863C1092.66 424.519 1095.41 427.847 1100.93 427.847Z" fill="#207CF1"/>
<path d="M1143.24 339.583H1163.28L1178.82 400.21H1179.11V339.583H1193.34V440.87H1176.93L1157.77 366.93H1157.47V440.87H1143.24V339.583Z" fill="#207CF1"/>
<path d="M1212.47 339.583H1256.03V354.052H1228.45V380.821H1250.37V395.291H1228.45V426.4H1256.03V440.87H1212.47V339.583Z" fill="#207CF1"/>
</g>
<path d="M848.574 499.032L848.446 504.024V515H853.63V490.04H845.95L841.502 506.008L837.022 490.04H829.374V515H834.558V504.024L834.398 499.032L838.846 515H844.126L848.574 499.032ZM876.067 508.344V506.072C876.067 501.176 873.603 497.624 868.227 497.624C862.883 497.624 860.195 501.176 860.195 506.072V506.968C860.195 511.864 862.787 515.416 868.419 515.416C873.315 515.416 876.067 512.92 876.067 509.688V509.56H871.299C871.299 510.584 870.211 511.576 868.451 511.576C866.563 511.576 865.443 510.712 865.251 508.344H876.067ZM868.131 501.464C869.923 501.464 870.819 502.488 870.979 504.696H865.283C865.443 502.488 866.339 501.464 868.131 501.464ZM888.376 497.624C883.736 497.624 882.072 501.048 882.072 505.944V507.096C882.072 511.992 883.736 515.416 888.376 515.416C890.712 515.416 892.216 514.392 893.176 512.984L893.528 515H898.072L897.784 510.2V489.4H892.728V499.48C891.768 498.36 890.36 497.624 888.376 497.624ZM892.728 503.576V509.464C892.312 510.072 891.352 511.064 889.848 511.064C887.864 511.064 887.096 509.592 887.096 507.096V505.944C887.096 503.448 887.864 501.976 889.848 501.976C891.352 501.976 892.312 502.968 892.728 503.576ZM905.049 515H910.105V498.04H905.049V515ZM910.233 490.296H904.921V495.64H910.233V490.296ZM921.677 507.096V505.944C921.677 503.448 922.445 501.976 924.397 501.976C925.997 501.976 926.829 502.904 926.829 504.632H931.597V503.896C931.597 500.152 929.165 497.624 924.301 497.624C918.957 497.624 916.621 501.048 916.621 505.944V507.096C916.621 511.992 918.957 515.416 924.301 515.416C929.165 515.416 931.597 512.92 931.597 509.432V508.728H926.829C926.829 510.072 926.029 511.064 924.397 511.064C922.445 511.064 921.677 509.592 921.677 507.096ZM948.152 515H952.696L952.376 510.2V504.088C952.376 499.992 950.712 497.624 945.176 497.624C939.576 497.624 937.976 500.408 937.976 503.352V503.64H942.744C942.744 502.52 943.192 501.464 945.016 501.464C946.744 501.464 947.288 502.296 947.32 503.96L943.416 504.568C939.864 505.112 937.336 506.328 937.336 510.008V510.328C937.336 513.048 938.712 515.416 942.52 515.416C944.888 515.416 946.648 514.52 947.832 513.24L948.152 515ZM944.376 511.32C942.904 511.32 942.36 510.456 942.36 509.592V509.4C942.36 508.376 942.872 507.64 944.44 507.384L947.32 506.936V510.04C946.776 510.616 945.816 511.32 944.376 511.32ZM959.507 515H964.563V489.4H959.507V515ZM991.322 494.52H997.114V490.04H980.378V494.52H986.138V515H991.322V494.52ZM1009.24 497.624C1007.26 497.624 1005.72 498.616 1004.73 500.024L1004.38 498.04H999.864L1000.15 502.84V515H1005.21V503.992C1005.66 503.352 1006.81 502.52 1008.86 502.52H1009.72V497.656C1009.59 497.624 1009.4 497.624 1009.24 497.624ZM1025.57 515H1030.11L1029.79 510.2V504.088C1029.79 499.992 1028.13 497.624 1022.59 497.624C1016.99 497.624 1015.39 500.408 1015.39 503.352V503.64H1020.16C1020.16 502.52 1020.61 501.464 1022.43 501.464C1024.16 501.464 1024.71 502.296 1024.74 503.96L1020.83 504.568C1017.28 505.112 1014.75 506.328 1014.75 510.008V510.328C1014.75 513.048 1016.13 515.416 1019.94 515.416C1022.31 515.416 1024.07 514.52 1025.25 513.24L1025.57 515ZM1021.79 511.32C1020.32 511.32 1019.78 510.456 1019.78 509.592V509.4C1019.78 508.376 1020.29 507.64 1021.86 507.384L1024.74 506.936V510.04C1024.19 510.616 1023.23 511.32 1021.79 511.32ZM1036.93 515H1041.98V498.04H1036.93V515ZM1042.11 490.296H1036.8V495.64H1042.11V490.296ZM1064.56 515V503.512C1064.56 500.44 1063.15 497.624 1059.31 497.624C1056.69 497.624 1054.93 498.712 1053.87 500.216L1053.49 498.04H1048.98L1049.27 502.84V515H1054.32V503.576C1054.71 502.968 1055.7 501.976 1057.3 501.976C1059.03 501.976 1059.54 503.128 1059.54 504.344V515H1064.56ZM1071.67 515H1076.72V498.04H1071.67V515ZM1076.85 490.296H1071.54V495.64H1076.85V490.296ZM1099.3 515V503.512C1099.3 500.44 1097.9 497.624 1094.06 497.624C1091.43 497.624 1089.67 498.712 1088.62 500.216L1088.23 498.04H1083.72L1084.01 502.84V515H1089.06V503.576C1089.45 502.968 1090.44 501.976 1092.04 501.976C1093.77 501.976 1094.28 503.128 1094.28 504.344V515H1099.3ZM1116.3 514.648C1116.3 516.952 1115.37 517.72 1113.42 517.72C1111.31 517.72 1110.73 516.6 1110.73 515H1105.96V515.672C1105.96 519.096 1107.85 521.816 1113.51 521.816C1118.86 521.816 1121.35 519.352 1121.35 514.68V502.84L1121.64 498.04H1117.13L1116.78 499.992C1115.82 498.616 1114.31 497.624 1111.95 497.624C1107.43 497.624 1105.64 501.016 1105.64 505.56V506.456C1105.64 511.288 1107.43 514.392 1111.95 514.392C1113.93 514.392 1115.34 513.72 1116.3 512.664V514.648ZM1113.42 510.04C1111.59 510.04 1110.7 508.888 1110.7 506.456V505.56C1110.7 503.416 1111.59 501.976 1113.42 501.976C1114.95 501.976 1115.91 502.968 1116.3 503.576V508.44C1115.91 509.048 1114.95 510.04 1113.42 510.04ZM1143.64 503.16V501.88C1143.64 496.888 1144.44 494.104 1147.77 494.104H1148.06C1150.78 494.104 1151.51 496.088 1151.51 499.512H1156.7V498.36C1156.7 492.12 1153.69 489.624 1147.77 489.624C1141.27 489.624 1138.39 493.24 1138.39 501.88V503.16C1138.39 511.8 1141.27 515.416 1147.77 515.416C1153.69 515.416 1156.7 512.92 1156.7 506.776V506.488H1151.51C1151.51 509.176 1150.58 510.936 1148.06 510.936H1147.77C1144.44 510.936 1143.64 508.152 1143.64 503.16ZM1178.63 508.344V506.072C1178.63 501.176 1176.16 497.624 1170.79 497.624C1165.44 497.624 1162.76 501.176 1162.76 506.072V506.968C1162.76 511.864 1165.35 515.416 1170.98 515.416C1175.88 515.416 1178.63 512.92 1178.63 509.688V509.56H1173.86C1173.86 510.584 1172.77 511.576 1171.01 511.576C1169.12 511.576 1168 510.712 1167.81 508.344H1178.63ZM1170.69 501.464C1172.48 501.464 1173.38 502.488 1173.54 504.696H1167.84C1168 502.488 1168.9 501.464 1170.69 501.464ZM1200.44 515V503.512C1200.44 500.44 1199.03 497.624 1195.19 497.624C1192.57 497.624 1190.81 498.712 1189.75 500.216L1189.37 498.04H1184.86L1185.15 502.84V515H1190.2V503.576C1190.59 502.968 1191.58 501.976 1193.18 501.976C1194.91 501.976 1195.42 503.128 1195.42 504.344V515H1200.44ZM1213.7 498.04V493.24H1208.64V498.04H1206.05V502.456H1208.64V509.112C1208.64 513.784 1211.2 515.416 1215.01 515.416C1216.55 515.416 1217.44 515.16 1217.73 515V510.84C1217.54 510.936 1216.74 511.064 1216.2 511.064C1214.66 511.064 1213.7 510.648 1213.7 508.568V502.456H1218.05V498.04H1213.7ZM1239.9 508.344V506.072C1239.9 501.176 1237.43 497.624 1232.06 497.624C1226.71 497.624 1224.03 501.176 1224.03 506.072V506.968C1224.03 511.864 1226.62 515.416 1232.25 515.416C1237.15 515.416 1239.9 512.92 1239.9 509.688V509.56H1235.13C1235.13 510.584 1234.04 511.576 1232.28 511.576C1230.39 511.576 1229.27 510.712 1229.08 508.344H1239.9ZM1231.96 501.464C1233.75 501.464 1234.65 502.488 1234.81 504.696H1229.11C1229.27 502.488 1230.17 501.464 1231.96 501.464ZM1255.5 497.624C1253.52 497.624 1251.98 498.616 1250.99 500.024L1250.64 498.04H1246.13L1246.42 502.84V515H1251.47V503.992C1251.92 503.352 1253.07 502.52 1255.12 502.52H1255.98V497.656C1255.86 497.624 1255.66 497.624 1255.5 497.624Z" fill="#F8931F"/>
<defs>
<clipPath id="clip0_113_528">
<rect width="643" height="104" fill="white" transform="translate(614 338)"/>
</clipPath>
</defs>
</svg>
